<?xml version="1.0" encoding="us-ascii" standalone="no"?><svg xmlns="http://www.w3.org/2000/svg" xmlns:xlink="http://www.w3.org/1999/xlink" contentStyleType="text/css" height="782px" preserveAspectRatio="none" style="width:659px;height:782px;background:#FFFFFF;" version="1.1" viewBox="0 0 659 782" width="659px" zoomAndPan="magnify"><defs/><g><line style="stroke:#181818;stroke-width:1.5;" x1="72.5" x2="72.5" y1="65.0938" y2="85.0938"/><rect fill="#F1F1F1" height="35.0938" style="stroke:#181818;stroke-width:1.5;" width="125" x="10" y="85.0938"/><text fill="#000000" font-family="sans-serif" font-size="12" lengthAdjust="spacing" textLength="105" x="20" y="107.5508">C.E.S. International</text><line style="stroke:#181818;stroke-width:1.5;" x1="72.5" x2="82.5" y1="152.7344" y2="152.7344"/><rect fill="#F1F1F1" height="35.0938" style="stroke:#181818;stroke-width:1.5;" width="46" x="82.5" y="135.1875"/><text fill="#000000" font-family="sans-serif" font-size="12" lengthAdjust="spacing" textLength="26" x="92.5" y="157.6445">CEO</text><line style="stroke:#181818;stroke-width:1.5;" x1="105.5" x2="115.5" y1="202.8281" y2="202.8281"/><rect fill="#F1F1F1" height="35.0938" style="stroke:#181818;stroke-width:1.5;" width="79" x="115.5" y="185.2813"/><text fill="#000000" font-family="sans-serif" font-size="12" lengthAdjust="spacing" textLength="59" x="125.5" y="207.7383">L. Poisson</text><line style="stroke:#181818;stroke-width:1.5;" x1="105.5" x2="105.5" y1="170.2813" y2="202.8281"/><line style="stroke:#181818;stroke-width:1.5;" x1="72.5" x2="82.5" y1="252.9219" y2="252.9219"/><rect fill="#F1F1F1" height="35.0938" style="stroke:#181818;stroke-width:1.5;" width="166" x="82.5" y="235.375"/><text fill="#000000" font-family="sans-serif" font-size="12" lengthAdjust="spacing" textLength="146" x="92.5" y="257.832">Project management team</text><line style="stroke:#181818;stroke-width:1.5;" x1="165.5" x2="175.5" y1="303.0156" y2="303.0156"/><rect fill="#F1F1F1" height="35.0938" style="stroke:#181818;stroke-width:1.5;" width="109" x="175.5" y="285.4688"/><text fill="#000000" font-family="sans-serif" font-size="12" lengthAdjust="spacing" textLength="89" x="185.5" y="307.9258">Project Manager</text><line style="stroke:#181818;stroke-width:1.5;" x1="230" x2="240" y1="353.1094" y2="353.1094"/><rect fill="#F1F1F1" height="35.0938" style="stroke:#181818;stroke-width:1.5;" width="121" x="240" y="335.5625"/><text fill="#000000" font-family="sans-serif" font-size="12" lengthAdjust="spacing" textLength="101" x="250" y="358.0195">Corentin DEGRES</text><line style="stroke:#181818;stroke-width:1.5;" x1="230" x2="230" y1="320.5625" y2="353.1094"/><line style="stroke:#181818;stroke-width:1.5;" x1="165.5" x2="175.5" y1="403.2031" y2="403.2031"/><rect fill="#F1F1F1" height="35.0938" style="stroke:#181818;stroke-width:1.5;" width="87" x="175.5" y="385.6563"/><text fill="#000000" font-family="sans-serif" font-size="12" lengthAdjust="spacing" textLength="67" x="185.5" y="408.1133">Consultants</text><line style="stroke:#181818;stroke-width:1.5;" x1="219" x2="229" y1="453.2969" y2="453.2969"/><rect fill="#F1F1F1" height="35.0938" style="stroke:#181818;stroke-width:1.5;" width="83" x="229" y="435.75"/><text fill="#000000" font-family="sans-serif" font-size="12" lengthAdjust="spacing" textLength="63" x="239" y="458.207">Bruno DIAS</text><line style="stroke:#181818;stroke-width:1.5;" x1="219" x2="229" y1="503.3906" y2="503.3906"/><rect fill="#F1F1F1" height="35.0938" style="stroke:#181818;stroke-width:1.5;" width="109" x="229" y="485.8438"/><text fill="#000000" font-family="sans-serif" font-size="12" lengthAdjust="spacing" textLength="89" x="239" y="508.3008">Dany KHADHAR</text><line style="stroke:#181818;stroke-width:1.5;" x1="219" x2="229" y1="553.4844" y2="553.4844"/><rect fill="#F1F1F1" height="35.0938" style="stroke:#181818;stroke-width:1.5;" width="104" x="229" y="535.9375"/><text fill="#000000" font-family="sans-serif" font-size="12" lengthAdjust="spacing" textLength="84" x="239" y="558.3945">Louis MARGOT</text><line style="stroke:#181818;stroke-width:1.5;" x1="219" x2="229" y1="603.5781" y2="603.5781"/><rect fill="#F1F1F1" height="35.0938" style="stroke:#181818;stroke-width:1.5;" width="101" x="229" y="586.0313"/><text fill="#000000" font-family="sans-serif" font-size="12" lengthAdjust="spacing" textLength="81" x="239" y="608.4883">Louka MILLON</text><line style="stroke:#181818;stroke-width:1.5;" x1="219" x2="229" y1="653.6719" y2="653.6719"/><rect fill="#F1F1F1" height="35.0938" style="stroke:#181818;stroke-width:1.5;" width="127" x="229" y="636.125"/><text fill="#000000" font-family="sans-serif" font-size="12" lengthAdjust="spacing" textLength="107" x="239" y="658.582">Romaric DEMBELE</text><line style="stroke:#181818;stroke-width:1.5;" x1="219" x2="229" y1="703.7656" y2="703.7656"/><rect fill="#F1F1F1" height="35.0938" style="stroke:#181818;stroke-width:1.5;" width="120" x="229" y="686.2188"/><text fill="#000000" font-family="sans-serif" font-size="12" lengthAdjust="spacing" textLength="100" x="239" y="708.6758">Th&#233;o ROUILLERE</text><line style="stroke:#181818;stroke-width:1.5;" x1="219" x2="219" y1="420.75" y2="703.7656"/><line style="stroke:#181818;stroke-width:1.5;" x1="165.5" x2="165.5" y1="270.4688" y2="403.2031"/><line style="stroke:#181818;stroke-width:1.5;" x1="72.5" x2="72.5" y1="120.1875" y2="252.9219"/><line style="stroke:#181818;stroke-width:1.5;" x1="420.5" x2="420.5" y1="65.0938" y2="85.0938"/><rect fill="#F1F1F1" height="35.0938" style="stroke:#181818;stroke-width:1.5;" width="79" x="381" y="85.0938"/><text fill="#000000" font-family="sans-serif" font-size="12" lengthAdjust="spacing" textLength="59" x="391" y="107.5508">Mold &amp; Co.</text><line style="stroke:#181818;stroke-width:1.5;" x1="420.5" x2="430.5" y1="152.7344" y2="152.7344"/><rect fill="#F1F1F1" height="35.0938" style="stroke:#181818;stroke-width:1.5;" width="218" x="430.5" y="135.1875"/><text fill="#000000" font-family="sans-serif" font-size="12" lengthAdjust="spacing" textLength="198" x="440.5" y="157.6445">Director of New Technology Projects</text><line style="stroke:#181818;stroke-width:1.5;" x1="539.5" x2="549.5" y1="202.8281" y2="202.8281"/><rect fill="#F1F1F1" height="35.0938" style="stroke:#181818;stroke-width:1.5;" width="67" x="549.5" y="185.2813"/><text fill="#000000" font-family="sans-serif" font-size="12" lengthAdjust="spacing" textLength="47" x="559.5" y="207.7383">Mrs. Zee</text><line style="stroke:#181818;stroke-width:1.5;" x1="539.5" x2="539.5" y1="170.2813" y2="202.8281"/><line style="stroke:#181818;stroke-width:1.5;" x1="420.5" x2="430.5" y1="252.9219" y2="252.9219"/><rect fill="#F1F1F1" height="35.0938" style="stroke:#181818;stroke-width:1.5;" width="114" x="430.5" y="235.375"/><text fill="#000000" font-family="sans-serif" font-size="12" lengthAdjust="spacing" textLength="94" x="440.5" y="257.832">R&amp;D Department</text><line style="stroke:#181818;stroke-width:1.5;" x1="420.5" x2="430.5" y1="303.0156" y2="303.0156"/><rect fill="#F1F1F1" height="35.0938" style="stroke:#181818;stroke-width:1.5;" width="189" x="430.5" y="285.4688"/><text fill="#000000" font-family="sans-serif" font-size="12" lengthAdjust="spacing" textLength="169" x="440.5" y="307.9258">Design and Engineering Team</text><line style="stroke:#181818;stroke-width:1.5;" x1="420.5" x2="430.5" y1="353.1094" y2="353.1094"/><rect fill="#F1F1F1" height="35.0938" style="stroke:#181818;stroke-width:1.5;" width="114" x="430.5" y="335.5625"/><text fill="#000000" font-family="sans-serif" font-size="12" lengthAdjust="spacing" textLength="94" x="440.5" y="358.0195">Production Team</text><line style="stroke:#181818;stroke-width:1.5;" x1="420.5" x2="430.5" y1="403.2031" y2="403.2031"/><rect fill="#F1F1F1" height="35.0938" style="stroke:#181818;stroke-width:1.5;" width="92" x="430.5" y="385.6563"/><text fill="#000000" font-family="sans-serif" font-size="12" lengthAdjust="spacing" textLength="72" x="440.5" y="408.1133">Quality Team</text><line style="stroke:#181818;stroke-width:1.5;" x1="420.5" x2="430.5" y1="453.2969" y2="453.2969"/><rect fill="#F1F1F1" height="35.0938" style="stroke:#181818;stroke-width:1.5;" width="125" x="430.5" y="435.75"/><text fill="#000000" font-family="sans-serif" font-size="12" lengthAdjust="spacing" textLength="105" x="440.5" y="458.207">Maintenance Team</text><line style="stroke:#181818;stroke-width:1.5;" x1="420.5" x2="430.5" y1="503.3906" y2="503.3906"/><rect fill="#F1F1F1" height="35.0938" style="stroke:#181818;stroke-width:1.5;" width="205" x="430.5" y="485.8438"/><text fill="#000000" font-family="sans-serif" font-size="12" lengthAdjust="spacing" textLength="185" x="440.5" y="508.3008">Logistics and Supply Chain Team</text><line style="stroke:#181818;stroke-width:1.5;" x1="420.5" x2="430.5" y1="553.4844" y2="553.4844"/><rect fill="#F1F1F1" height="35.0938" style="stroke:#181818;stroke-width:1.5;" width="151" x="430.5" y="535.9375"/><text fill="#000000" font-family="sans-serif" font-size="12" lengthAdjust="spacing" textLength="131" x="440.5" y="558.3945">Health and Safety Team</text><line style="stroke:#181818;stroke-width:1.5;" x1="420.5" x2="430.5" y1="603.5781" y2="603.5781"/><rect fill="#F1F1F1" height="35.0938" style="stroke:#181818;stroke-width:1.5;" width="180" x="430.5" y="586.0313"/><text fill="#000000" font-family="sans-serif" font-size="12" lengthAdjust="spacing" textLength="160" x="440.5" y="608.4883">Financial Management Team</text><line style="stroke:#181818;stroke-width:1.5;" x1="420.5" x2="430.5" y1="653.6719" y2="653.6719"/><rect fill="#F1F1F1" height="35.0938" style="stroke:#181818;stroke-width:1.5;" width="160" x="430.5" y="636.125"/><text fill="#000000" font-family="sans-serif" font-size="12" lengthAdjust="spacing" textLength="140" x="440.5" y="658.582">Human Resources Team</text><line style="stroke:#181818;stroke-width:1.5;" x1="420.5" x2="430.5" y1="703.7656" y2="703.7656"/><rect fill="#F1F1F1" height="35.0938" style="stroke:#181818;stroke-width:1.5;" width="167" x="430.5" y="686.2188"/><text fill="#000000" font-family="sans-serif" font-size="12" lengthAdjust="spacing" textLength="147" x="440.5" y="708.6758">Marketing and Sales Team</text><line style="stroke:#181818;stroke-width:1.5;" x1="420.5" x2="430.5" y1="753.8594" y2="753.8594"/><rect fill="#F1F1F1" height="35.0938" style="stroke:#181818;stroke-width:1.5;" width="180" x="430.5" y="736.3125"/><text fill="#000000" font-family="sans-serif" font-size="12" lengthAdjust="spacing" textLength="160" x="440.5" y="758.7695">Legal and Compliance Team</text><line style="stroke:#181818;stroke-width:1.5;" x1="420.5" x2="420.5" y1="120.1875" y2="753.8594"/><line style="stroke:#181818;stroke-width:1.5;" x1="72.5" x2="420.5" y1="65.0938" y2="65.0938"/><rect fill="#F1F1F1" height="35.0938" style="stroke:#181818;stroke-width:1.5;" width="189" x="152" y="10"/><text fill="#000000" font-family="sans-serif" font-size="12" lengthAdjust="spacing" textLength="169" x="162" y="32.457">Factory Production Line Project</text><line style="stroke:#181818;stroke-width:1.5;" x1="246.5" x2="246.5" y1="45.0938" y2="65.0938"/><!--SRC=[JLBBRgD04BpFL_GfIYm5nVOgMd6ARV0h4BnWPwMzJQ2DPmCpripWY4_QxzWVs-RXnIT4TNLDTrM_6Ckr_Vem4CqJDe8bJwtIDUoqoghK2YKX41AR_z-OMZOQmSBndSI1ZRIe9Myel22S2dxKV4SGEB1JmXWbMxplXP9BdcE9qe95NdRSQp5iYxe5IKffeWa9dh-A_OJre3HLORcqfgVDTIKLU9jPqWCUbpMyhcVUUXRtKA0gOI2SnQjeFq2V7C9D44HlFHIhackHqdlXt0_y7jsV_lvH44S7elgnpvhrGrLaS4V3EErodj3OM0Rg26_u1NjCJr8LAg-lgtN3GgYD0xyGswxupWCFpsHzOqSdX4Ra4hZCm9SvUOvQo9pqEgTk4_cF_QXu8Mmz024N58laCiK135GkZ1MfQSMJwdmkQbYSY3fmriWBU-e8_8YtcalHw0bUz1cr0GwD5SKACHfLwHJDxIZw4sspGYTQt1O3p4clAInKUIx4C31xGPdHFJAsAoZfGnZ01RLfrXuxawV9r1cFxtyYAU8PnbEOFBcJPtSwfUjBzj0G7jZzQXT0Dn1ajBeM7rLZt0FRyWk7kABJAj65w8nowxrU0VBz8hIIRIJRzt0WF7zxd0jBJsgQ1Tv3vk6HqobIHweosj65mtxv-9q5NEOLUUJ2KRE58brTkx2C_m40]--></g></svg>